<svg width="32" height="38" viewBox="0 0 32 38" fill="none" xmlns="http://www.w3.org/2000/svg">
<path d="M7.99097 16.3641V3.68307C7.99097 2.41072 9.02241 1.37928 10.2948 1.37928H31.5661" stroke="black" stroke-width="1.5"/>
<path d="M10.4612 37.1748V37.9248H11.2112V37.1748H10.4612ZM7.49771 37.175H6.74771V37.925H7.49771V37.175ZM2.31738 20.2371C2.31738 18.1953 3.97254 16.5402 6.01429 16.5402V15.0402C3.14412 15.0402 0.817383 17.3669 0.817383 20.2371H2.31738ZM2.31738 34.871V20.2371H0.817383V34.871H2.31738ZM3.87117 36.4248C3.01304 36.4248 2.31738 35.7291 2.31738 34.871H0.817383C0.817383 36.5576 2.18461 37.9248 3.87117 37.9248V36.4248ZM10.4612 36.4248H3.87117V37.9248H10.4612V36.4248ZM9.7112 20.2371V37.1748H11.2112V20.2371H9.7112ZM6.01429 16.5402C8.05603 16.5402 9.7112 18.1953 9.7112 20.2371H11.2112C11.2112 17.3669 8.88446 15.0402 6.01429 15.0402V16.5402ZM10.4612 29.9058H31.5673V28.4058H10.4612V29.9058ZM31.5673 36.425H7.49771V37.925H31.5673V36.425ZM8.24771 37.175V37.1748H6.74771V37.175H8.24771Z" fill="black"/>
</svg>
