<svg width="32" height="38" viewBox="0 0 32 38" fill="none" xmlns="http://www.w3.org/2000/svg">
<path d="M24.1858 16.3641V3.68307C24.1858 2.41072 23.1543 1.37928 21.882 1.37928H0.610655" stroke="black" stroke-width="1.5"/>
<path d="M21.7156 37.1748V37.9248H20.9656V37.1748H21.7156ZM24.679 37.175H25.429V37.925H24.679V37.175ZM29.8594 20.2371C29.8594 18.1953 28.2042 16.5402 26.1625 16.5402V15.0402C29.0326 15.0402 31.3594 17.3669 31.3594 20.2371H29.8594ZM29.8594 34.871V20.2371H31.3594V34.871H29.8594ZM28.3056 36.4248C29.1637 36.4248 29.8594 35.7291 29.8594 34.871H31.3594C31.3594 36.5576 29.9921 37.9248 28.3056 37.9248V36.4248ZM21.7156 36.4248H28.3056V37.9248H21.7156V36.4248ZM22.4656 20.2371V37.1748H20.9656V20.2371H22.4656ZM26.1625 16.5402C24.1207 16.5402 22.4656 18.1953 22.4656 20.2371H20.9656C20.9656 17.3669 23.2923 15.0402 26.1625 15.0402V16.5402ZM21.7156 29.9058H0.609467V28.4058H21.7156V29.9058ZM0.609467 36.425H24.679V37.925H0.609467V36.425ZM23.929 37.175V37.1748H25.429V37.175H23.929Z" fill="black"/>
</svg>
